<svg width="100" height="77" viewBox="0 0 100 77" fill="none" xmlns="http://www.w3.org/2000/svg">
<path d="M84.6564 6.32303C78.1728 3.34545 71.3304 1.2215 64.3004 0.00434131C64.2367 -0.00638446 64.1713 0.00287903 64.1131 0.0308584C64.0549 0.0588378 64.0068 0.104159 63.9754 0.16059C63.0941 1.72307 62.1192 3.7668 61.4379 5.36678C53.8605 4.2178 46.1531 4.2178 38.5757 5.36678C37.8189 3.58296 36.9592 1.84463 36.0007 0.16059C35.9693 0.104159 35.9212 0.0588378 35.863 0.0308584C35.8048 0.00287903 35.7394 -0.00638446 35.6757 0.00434131C28.6445 1.21683 21.8008 3.34181 15.3196 6.32303C15.2639 6.34373 15.2174 6.38361 15.1884 6.43552C2.22603 25.8041 -1.33018 44.6976 0.413551 63.3537C0.426051 63.4453 0.469801 63.5224 0.5448 63.5849C8.09453 69.1737 16.5369 73.4425 25.5133 76.2098C25.5767 76.2298 25.6448 76.2291 25.7077 76.2077C25.7707 76.1864 25.8252 76.1455 25.8633 76.091C27.7924 73.4661 29.4966 70.6974 30.9757 67.7849C31.0065 67.7249 31.017 67.6566 31.0057 67.5901C30.9945 67.5237 30.962 67.4626 30.9132 67.4161L30.8007 67.3474C28.1093 66.3096 25.5016 65.0664 23.0008 63.6287C22.931 63.5891 22.8791 63.5242 22.8558 63.4474C22.8325 63.3706 22.8397 63.2878 22.8758 63.2162L22.9696 63.0974C23.4987 62.7016 24.0154 62.2954 24.5195 61.8787C24.5637 61.8432 24.6167 61.8203 24.6729 61.8126C24.729 61.8049 24.7862 61.8126 24.8383 61.8349C41.2069 69.3099 58.9254 69.3099 75.094 61.8349C75.1477 61.8101 75.2073 61.8011 75.266 61.8088C75.3246 61.8166 75.3799 61.8408 75.4253 61.8787C75.9294 62.2954 76.4461 62.7016 76.9753 63.0974C77.0192 63.1275 77.0548 63.1684 77.0785 63.2161C77.1023 63.2638 77.1134 63.3168 77.1109 63.37C77.1084 63.4233 77.0924 63.475 77.0642 63.5202C77.0361 63.5655 76.9969 63.6028 76.9503 63.6287C74.4602 65.0892 71.8484 66.3313 69.1441 67.3411C69.101 67.3567 69.0619 67.3816 69.0295 67.414C68.9971 67.4464 68.9722 67.4855 68.9566 67.5286C68.9414 67.5702 68.9352 67.6146 68.9384 67.6588C68.9416 67.703 68.9542 67.7459 68.9753 67.7849C70.4753 70.6911 72.194 73.4661 74.0815 76.091C74.1197 76.1455 74.1741 76.1864 74.2371 76.2077C74.3 76.2291 74.3681 76.2298 74.4315 76.2098C83.4256 73.4577 91.8828 69.1879 99.4375 63.5849C99.4751 63.5584 99.5063 63.5239 99.529 63.484C99.5517 63.444 99.5652 63.3995 99.5688 63.3537C101.656 41.7852 96.075 23.0479 84.7814 6.44177C84.7716 6.41342 84.7551 6.38784 84.7334 6.36718C84.7116 6.34652 84.6852 6.33137 84.6564 6.32303ZM33.4195 51.9913C28.4883 51.9913 24.432 47.4663 24.432 41.9164C24.432 36.3665 28.4133 31.8353 33.4195 31.8353C38.4632 31.8353 42.4819 36.3977 42.4069 41.9164C42.4069 47.4663 38.4257 51.9913 33.4195 51.9913ZM66.6441 51.9913C61.7192 51.9913 57.6567 47.4663 57.6567 41.9164C57.6567 36.3665 61.6379 31.8353 66.6441 31.8353C71.6878 31.8353 75.7128 36.3977 75.6315 41.9164C75.6315 47.4663 71.6878 51.9913 66.6441 51.9913Z" fill="#01FF01"/>
</svg>
