<svg width="100" height="105" viewBox="0 0 100 105" fill="none" xmlns="http://www.w3.org/2000/svg">
<g clip-path="url(#clip0_1_20)">
<path d="M50.375 23.6875C52.8614 23.6875 55.246 22.6504 57.0041 20.8043C58.7623 18.9583 59.75 16.4545 59.75 13.8438C59.75 11.233 58.7623 8.72923 57.0041 6.88317C55.246 5.03711 52.8614 4 50.375 4C47.8886 4 45.504 5.03711 43.7459 6.88317C41.9877 8.72923 41 11.233 41 13.8438C41 16.4545 41.9877 18.9583 43.7459 20.8043C45.504 22.6504 47.8886 23.6875 50.375 23.6875Z" fill="#01FF01"/>
<path d="M37.0625 43.995L31.775 99.4547C31.6068 100.78 31.9468 102.121 32.7204 103.183C33.494 104.246 34.6377 104.941 35.9 105.118C37.1623 105.295 38.4397 104.938 39.4512 104.125C40.4627 103.313 41.1255 102.112 41.2938 100.787L46.3563 68.8603C46.4956 67.9518 46.9385 67.1251 47.6056 66.5283C48.2727 65.9316 49.1205 65.6038 49.9969 65.6038C50.8733 65.6038 51.721 65.9316 52.3882 66.5283C53.0553 67.1251 53.4982 67.9518 53.6375 68.8603L58.7 100.787C58.8683 102.112 59.531 103.313 60.5426 104.125C61.5541 104.938 62.8315 105.295 64.0938 105.118C65.356 104.941 66.4998 104.246 67.2733 103.183C68.0469 102.121 68.387 100.78 68.2188 99.4547L62.9375 43.995C62.8034 42.5514 62.9748 41.0946 63.4394 39.7287C63.904 38.3628 64.6503 37.1215 65.625 36.0938L81.25 14.9887C82.0211 13.9053 82.362 12.55 82.2008 11.208C82.0395 9.86604 81.3889 8.64205 80.3857 7.79357C79.3825 6.94509 78.1049 6.53828 76.8218 6.65872C75.5388 6.77917 74.3502 7.41749 73.5063 8.43937L60.2125 25.2C59.6848 25.9163 58.9672 26.4528 58.15 26.7422C56.7125 27.2278 53.9938 27.8972 50 27.8972C46 27.8972 43.2875 27.2278 41.8438 26.7422C41.0288 26.4517 40.3135 25.9152 39.7875 25.2L26.4938 8.43937C25.6579 7.38906 24.4627 6.7252 23.1655 6.5906C21.8682 6.45599 20.5725 6.86138 19.5569 7.71958C18.5414 8.57778 17.8873 9.82022 17.7352 11.1796C17.5831 12.539 17.9453 13.9068 18.7438 14.9887L34.3688 36.0938C36.35 38.1675 37.3438 41.0681 37.0625 43.995Z" fill="#01FF01"/>
<path d="M85.2941 29.1667C85.7817 29.1667 86.2492 29.3587 86.594 29.7006C86.9387 30.0425 87.1324 30.5061 87.1324 30.9896V41.9271H98.1618C98.6493 41.9271 99.1169 42.1191 99.4616 42.461C99.8064 42.8029 100 43.2665 100 43.75C100 44.2335 99.8064 44.6971 99.4616 45.039C99.1169 45.3809 98.6493 45.5729 98.1618 45.5729H87.1324V56.5104C87.1324 56.9939 86.9387 57.4576 86.594 57.7994C86.2492 58.1413 85.7817 58.3333 85.2941 58.3333C84.8066 58.3333 84.339 58.1413 83.9943 57.7994C83.6496 57.4576 83.4559 56.9939 83.4559 56.5104V45.5729H72.4265C71.939 45.5729 71.4714 45.3809 71.1267 45.039C70.7819 44.6971 70.5883 44.2335 70.5883 43.75C70.5883 43.2665 70.7819 42.8029 71.1267 42.461C71.4714 42.1191 71.939 41.9271 72.4265 41.9271H83.4559V30.9896C83.4559 30.5061 83.6496 30.0425 83.9943 29.7006C84.339 29.3587 84.8066 29.1667 85.2941 29.1667Z" fill="#01FF01"/>
</g>
<defs>
<clipPath id="clip0_1_20">
<rect width="100" height="105" fill="white"/>
</clipPath>
</defs>
</svg>
