<svg width="100" height="75" viewBox="0 0 100 75" fill="none" xmlns="http://www.w3.org/2000/svg">
<path d="M0 12.5C0 9.18479 1.31696 6.00537 3.66117 3.66116C6.00537 1.31696 9.18479 0 12.5 0H87.5C90.8152 0 93.9946 1.31696 96.3388 3.66116C98.683 6.00537 100 9.18479 100 12.5V62.5C100 65.8152 98.683 68.9946 96.3388 71.3388C93.9946 73.683 90.8152 75 87.5 75H12.5C9.18479 75 6.00537 73.683 3.66117 71.3388C1.31696 68.9946 0 65.8152 0 62.5V12.5ZM12.5 6.25C10.8424 6.25 9.25268 6.90848 8.08058 8.08058C6.90848 9.25268 6.25 10.8424 6.25 12.5V13.8563L50 40.1062L93.75 13.8563V12.5C93.75 10.8424 93.0915 9.25268 91.9194 8.08058C90.7473 6.90848 89.1576 6.25 87.5 6.25H12.5ZM93.75 21.1437L64.325 38.8L93.75 56.9062V21.1437ZM93.5375 64.1187L58.2875 42.425L50 47.3938L41.7125 42.425L6.4625 64.1125C6.81766 65.4425 7.60198 66.618 8.69369 67.4566C9.78539 68.2951 11.1234 68.7498 12.5 68.75H87.5C88.8758 68.7502 90.2132 68.2964 91.3048 67.459C92.3964 66.6217 93.1812 65.4476 93.5375 64.1187ZM6.25 56.9062L35.675 38.8L6.25 21.1437V56.9062Z" fill="#01FF01"/>
</svg>
