<svg width="100" height="71" viewBox="0 0 100 71" fill="none" xmlns="http://www.w3.org/2000/svg">
<path d="M50.3219 0H50.8782C56.016 0.0187512 82.0489 0.206264 89.0681 2.09388C91.19 2.66997 93.1236 3.79288 94.6757 5.35039C96.2277 6.90789 97.3438 8.84545 97.9124 10.9694C98.5437 13.3446 98.9874 16.4885 99.2875 19.7325L99.35 20.3825L99.4875 22.0076L99.5375 22.6577C99.9438 28.3705 99.9938 33.7209 100 34.8897V35.3585C99.9938 36.571 99.9375 42.2839 99.4875 48.2343L99.4375 48.8906L99.3812 49.5406C99.0687 53.1158 98.6062 56.666 97.9124 59.2787C97.3438 61.4027 96.2277 63.3403 94.6757 64.8978C93.1236 66.4553 91.19 67.5782 89.0681 68.1543C81.8176 70.1044 54.2596 70.2419 50.4407 70.2481H49.5531C47.6217 70.2481 39.6337 70.2106 31.2582 69.9231L30.1956 69.8856L29.6519 69.8606L28.583 69.8169L27.5142 69.7731C20.5763 69.4668 13.9696 68.9731 10.9257 68.148C8.80447 67.5725 6.87136 66.4505 5.3194 64.8942C3.76744 63.3378 2.65094 61.4015 2.08138 59.2787C1.38759 56.6723 0.925058 53.1158 0.612538 49.5406L0.562535 48.8843L0.512532 48.2343C0.202284 43.9991 0.0313477 39.7549 0 35.5085L0 34.7397C0.0125008 33.3958 0.0625039 28.7518 0.400025 23.6265L0.443778 22.9827L0.462529 22.6577L0.512532 22.0076L0.650041 20.3825L0.712545 19.7325C1.01256 16.4885 1.45634 13.3383 2.08763 10.9694C2.65623 8.84545 3.77231 6.90789 5.32434 5.35039C6.87636 3.79288 8.80997 2.66997 10.9319 2.09388C13.9759 1.28133 20.5825 0.781298 27.5205 0.468779L28.583 0.425026L29.6581 0.387525L30.1956 0.368774L31.2645 0.325021C37.213 0.133781 43.164 0.0275127 49.1156 0.00625068L50.3219 0ZM40.0025 20.0638V50.1781L65.9854 35.1272L40.0025 20.0638Z" fill="#01FF01"/>
</svg>
